<?xml version="1.0" standalone="no"?>
<!DOCTYPE svg PUBLIC "-//W3C//DTD SVG 20010904//EN"
 "http://www.w3.org/TR/2001/REC-SVG-20010904/DTD/svg10.dtd">
<svg version="1.0" xmlns="http://www.w3.org/2000/svg"
 width="700.000000pt" height="700.000000pt" viewBox="0 0 700.000000 700.000000"
 preserveAspectRatio="xMidYMid meet">
<metadata>
Created by potrace 1.11, written by Peter Selinger 2001-2013
</metadata>
<g transform="translate(0.000000,700.000000) scale(0.100000,-0.100000)"
fill="#000000" stroke="none">
<path d="M3367 6764 c-1 -1 -46 -5 -100 -8 -119 -8 -197 -17 -283 -32 -116
-20 -160 -28 -244 -49 -207 -51 -270 -71 -450 -142 -247 -97 -530 -256 -749
-420 -173 -128 -450 -397 -589 -571 -175 -219 -364 -537 -465 -783 -63 -153
-144 -399 -160 -489 -3 -14 -12 -54 -20 -90 -14 -59 -41 -223 -52 -310 -23
-194 -23 -609 0 -730 3 -13 7 -54 11 -90 3 -36 8 -68 10 -71 2 -4 6 -24 9 -45
24 -166 100 -432 182 -639 241 -611 674 -1145 1223 -1509 247 -164 441 -263
705 -358 207 -75 464 -137 665 -163 25 -3 61 -8 80 -10 178 -23 601 -23 722 0
12 3 44 7 72 10 80 9 133 18 236 40 14 3 34 7 45 9 11 2 49 12 85 21 36 9 70
18 75 19 45 10 215 68 330 113 416 164 775 401 1095 722 158 159 216 224 325
372 162 219 312 488 405 729 29 74 56 144 61 155 4 11 19 61 34 110 14 50 30
104 35 120 5 17 11 41 14 55 2 14 14 68 24 120 21 100 27 133 37 215 4 28 8
61 11 75 22 138 22 551 -1 720 -3 19 -7 55 -10 80 -3 25 -7 56 -10 70 -3 13
-7 42 -10 65 -4 22 -10 56 -15 75 -5 19 -11 46 -14 60 -24 132 -95 357 -167
531 -131 319 -320 629 -536 879 -12 14 -31 36 -43 50 -82 96 -292 296 -385
367 -28 21 -59 46 -70 56 -56 52 -358 242 -490 309 -127 64 -356 166 -390 172
-5 1 -62 19 -125 40 -108 36 -273 77 -385 96 -27 5 -59 11 -70 14 -11 2 -47 7
-80 11 -33 4 -73 8 -90 11 -85 11 -478 26 -488 18z"/>
</g>
</svg>
